<?xml version="1.0" encoding="utf-8"?>
<!-- Generator: Adobe Illustrator 24.2.1, SVG Export Plug-In . SVG Version: 6.00 Build 0)  -->
<svg version="1.1" id="Layer_1" xmlns="http://www.w3.org/2000/svg" xmlns:xlink="http://www.w3.org/1999/xlink" x="0px" y="0px"
	 viewBox="0 0 1000 1000" style="enable-background:new 0 0 1000 1000;" xml:space="preserve">
<style type="text/css">
	.st0{fill:#FFFFFF;stroke:#000000;stroke-miterlimit:10;}
	.st1{fill:#FFD54F;}
	.st2{fill:#FFEE58;}
	.st3{fill:#F5D049;}
	.st4{fill:#FF9800;}
</style>
<path class="st0" d="M132.78,886.09"/>
<path class="st0" d="M241.16,684.39"/>
<g id="XMLID_1_">
	<g>
		<polygon class="st1" points="520.95,687.93 127.68,872.6 127.71,872.58 449.07,662.76 		"/>
		<polygon class="st2" points="449.07,662.76 127.71,872.58 239.65,696.82 241.17,696.54 769.87,606.85 		"/>
		<polygon class="st1" points="880.72,202.05 849.07,638.37 769.87,606.85 735.11,95.19 		"/>
		<polygon class="st3" points="849.07,638.37 520.95,687.93 449.07,662.76 769.87,606.85 		"/>
		<path class="st2" d="M735.11,95.19l34.76,511.66l-514.56,65.38l2.06-3.24L149.27,685.7l-21.59-415.24L735.11,95.19z
			 M704.94,387.81c0-57.75-38.13-104.57-85.17-104.57c-47.03,0-85.16,46.82-85.16,104.57s38.13,104.56,85.16,104.56
			C666.81,492.37,704.94,445.56,704.94,387.81z M516.22,422.23c0-53.44-35.28-96.75-78.8-96.75c-43.52,0-78.81,43.32-78.81,96.75
			s35.28,96.77,78.81,96.77C480.94,518.99,516.22,475.67,516.22,422.23z M338.18,459.1c0-50.92-33.62-92.2-75.1-92.2
			s-75.1,41.28-75.1,92.2s33.62,92.21,75.1,92.21S338.18,510.03,338.18,459.1z"/>
		<polygon class="st2" points="769.87,606.85 241.17,696.54 239.65,696.82 255.32,672.23 		"/>
		<path class="st4" d="M619.77,283.24c47.04,0,85.17,46.82,85.17,104.57s-38.13,104.56-85.17,104.56
			c-47.03,0-85.16-46.81-85.16-104.56S572.75,283.24,619.77,283.24z"/>
		<path class="st4" d="M437.43,325.47c43.51,0,78.8,43.32,78.8,96.75s-35.28,96.77-78.8,96.77c-43.52,0-78.81-43.33-78.81-96.77
			S393.9,325.47,437.43,325.47z"/>
		<path class="st4" d="M263.09,366.9c41.47,0,75.1,41.28,75.1,92.2s-33.62,92.21-75.1,92.21s-75.1-41.29-75.1-92.21
			S221.61,366.9,263.09,366.9z"/>
		<polygon class="st3" points="257.38,668.99 255.32,672.23 149.27,685.7 		"/>
		<polygon class="st3" points="255.32,672.23 239.65,696.82 207.61,702.82 149.27,685.7 		"/>
	</g>
	<g>
	</g>
</g>
</svg>
