<?xml version="1.0" encoding="utf-8"?>
<!-- Generator: Adobe Illustrator 24.2.1, SVG Export Plug-In . SVG Version: 6.00 Build 0)  -->
<svg version="1.1" id="Layer_1" xmlns="http://www.w3.org/2000/svg" xmlns:xlink="http://www.w3.org/1999/xlink" x="0px" y="0px"
	 viewBox="0 0 1000 1000" style="enable-background:new 0 0 1000 1000;" xml:space="preserve">
<style type="text/css">
	.st0{fill:#FFFFFF;stroke:#000000;stroke-miterlimit:10;}
	.st1{fill:#546E7A;stroke:#FFD54F;stroke-miterlimit:10;}
	.st2{fill:#FFD54F;}
	.st3{fill:#F5D049;}
	.st4{fill:#263238;}
	.st5{fill:#FFEE58;}
	.st6{fill:#FF9800;}
</style>
<path class="st0" d="M132.78,886.09"/>
<path class="st1" d="M900,1000H100C44.77,1000,0,955.23,0,900V100C0,44.77,44.77,0,100,0h800c55.23,0,100,44.77,100,100v800
	C1000,955.23,955.23,1000,900,1000z"/>
<path class="st0" d="M241.16,684.39"/>
<g id="XMLID_1_">
	<g>
		<polygon class="st2" points="880.72,202.05 849.07,638.37 769.87,606.85 735.11,95.19 		"/>
		<polygon class="st3" points="849.07,638.37 520.95,687.93 449.07,662.76 769.87,606.85 		"/>
		<path class="st4" d="M698.47,848.34c0,0,279.71,38.79,121.37,46.68c-158.34,7.88-361.96,35.86-514.88,9.5
			c-152.93-26.35-166.21-18.72-166.21-18.72s-47.28,7.3-13.88-16.41c1.37-0.97,3.62-1.92,6.67-2.85l-3.84,6.04l-0.02,0.02
			l20.63-9.68C260.76,844.12,713.37,837.76,698.47,848.34z"/>
		<path class="st5" d="M735.11,95.19l34.76,511.66l-514.56,65.38l2.06-3.24L149.27,685.7l-21.59-415.24L735.11,95.19z
			 M704.94,387.81c0-57.75-38.13-104.57-85.17-104.57c-47.03,0-85.16,46.82-85.16,104.57s38.13,104.56,85.16,104.56
			C666.81,492.37,704.94,445.56,704.94,387.81z M516.22,422.23c0-53.44-35.28-96.75-78.8-96.75c-43.52,0-78.81,43.32-78.81,96.75
			s35.28,96.77,78.81,96.77C480.94,518.99,516.22,475.67,516.22,422.23z M338.18,459.1c0-50.92-33.62-92.2-75.1-92.2
			s-75.1,41.28-75.1,92.2s33.62,92.21,75.1,92.21S338.18,510.03,338.18,459.1z"/>
		<path class="st5" d="M769.87,606.85l-320.81,55.92L140.24,864.41c-3.38,0.69-6.28,1.41-8.69,2.13l108.11-169.72l1.52-0.29
			L769.87,606.85z"/>
		<polygon class="st5" points="769.87,606.85 241.17,696.54 239.65,696.82 255.32,672.23 		"/>
		<path class="st6" d="M619.77,283.24c47.04,0,85.17,46.82,85.17,104.57s-38.13,104.56-85.17,104.56
			c-47.03,0-85.16-46.81-85.16-104.56S572.75,283.24,619.77,283.24z"/>
		<path class="st2" d="M520.95,687.93l-372.63,175c-2.93,0.48-5.62,0.98-8.08,1.49l308.83-201.64L520.95,687.93z"/>
		<path class="st6" d="M437.43,325.47c43.51,0,78.8,43.32,78.8,96.75s-35.28,96.77-78.8,96.77c-43.52,0-78.81-43.33-78.81-96.77
			S393.9,325.47,437.43,325.47z"/>
		<path class="st6" d="M263.09,366.9c41.47,0,75.1,41.28,75.1,92.2s-33.62,92.21-75.1,92.21s-75.1-41.29-75.1-92.21
			S221.61,366.9,263.09,366.9z"/>
		<polygon class="st3" points="257.38,668.99 255.32,672.23 149.27,685.7 		"/>
		<polygon class="st3" points="255.32,672.23 239.65,696.82 207.61,702.82 149.27,685.7 		"/>
		<path class="st2" d="M148.32,862.92l-20.63,9.68l0.02-0.02l12.53-8.17C142.69,863.9,145.39,863.41,148.32,862.92z"/>
		<path class="st5" d="M140.24,864.41l-12.53,8.17l3.84-6.04C133.95,865.82,136.86,865.1,140.24,864.41z"/>
	</g>
	<g>
	</g>
</g>
</svg>
